<?xml version="1.0" encoding="utf-8"?>
<svg viewBox="2.539 -100.981 1764.274 526.174" xmlns="http://www.w3.org/2000/svg">
  <path fill="#50799E" fill-opacity="1" d="M 0 128 L 60 112 C 120 96 240 64 360 48 C 480 32 600 32 720 58.7 C 840 85 960 139 1080 170.7 C 1200 203 1479.072 188.626 1539.072 194.326 L 1791.498 179.101 C 2840.629 -3773.438 1768.828 -320.388 1768.828 -320.388 L 1339.953 -375.763 C 1279.953 -375.763 1222.154 -315.266 1102.154 -315.266 C 982.154 -315.266 850.225 -336.568 730.225 -336.568 C 610.225 -336.568 505.562 -336.567 385.562 -336.567 C 265.562 -336.567 61.208 -351.053 1.208 -351.053 L 1.704 -140.592 L 0 128 Z"/>
</svg>