<svg width="40" height="15" viewBox="0 0 80 31" fill="none" xmlns="http://www.w3.org/2000/svg">
<path fill-rule="evenodd" clip-rule="evenodd" d="M62.5 0.841798C63.6919 -0.309044 65.5911 -0.275723 66.742 0.91622L78.6582 13.258C79.7806 14.4205 79.7806 16.2631 78.6582 17.4256L66.742 29.7674C65.5911 30.9593 63.6919 30.9926 62.5 29.8418C61.3081 28.691 61.2747 26.7918 62.4256 25.5998L64.5248 23.4256L69.5 18.3418H62.3666H3C1.34315 18.3418 0 16.9987 0 15.3418C0 13.6849 1.34315 12.3418 3 12.3418H62.3666H69.5L64.5248 7.25801L62.4256 5.08379C61.2747 3.89184 61.3081 1.99264 62.5 0.841798Z" fill="white"/>
</svg>
